<svg width="15" height="37" viewBox="0 0 15 37" fill="none" xmlns="http://www.w3.org/2000/svg">
<mask id="path-1-outside-1_450_62" maskUnits="userSpaceOnUse" x="-1" y="10" width="10" height="21" fill="black">
<rect fill="white" x="-1" y="10" width="10" height="21"/>
<path d="M7.2988 11.612V25.5C7.2988 26.9373 6.97213 27.9267 6.3188 28.468C5.66546 29.0093 4.46146 29.28 2.7068 29.28H1.2788L0.914797 25.472H1.8668C2.18413 25.472 2.38013 25.4347 2.4548 25.36C2.54813 25.2667 2.5948 25.08 2.5948 24.8V11.612H7.2988Z"/>
</mask>
<path d="M7.2988 11.612V25.5C7.2988 26.9373 6.97213 27.9267 6.3188 28.468C5.66546 29.0093 4.46146 29.28 2.7068 29.28H1.2788L0.914797 25.472H1.8668C2.18413 25.472 2.38013 25.4347 2.4548 25.36C2.54813 25.2667 2.5948 25.08 2.5948 24.8V11.612H7.2988Z" fill="white"/>
<path d="M7.2988 11.612H8.2988V10.612H7.2988V11.612ZM6.3188 28.468L5.68078 27.698H5.68078L6.3188 28.468ZM1.2788 29.28L0.283334 29.3752L0.369827 30.28H1.2788V29.28ZM0.914797 25.472V24.472H-0.18535L-0.0806656 25.5672L0.914797 25.472ZM2.4548 25.36L1.74769 24.6529H1.74769L2.4548 25.36ZM2.5948 11.612V10.612H1.5948V11.612H2.5948ZM6.2988 11.612V25.5H8.2988V11.612H6.2988ZM6.2988 25.5C6.2988 26.8394 5.98594 27.4451 5.68078 27.698L6.95681 29.238C7.95833 28.4082 8.2988 27.0352 8.2988 25.5H6.2988ZM5.68078 27.698C5.31916 27.9976 4.43555 28.28 2.7068 28.28V30.28C4.48737 30.28 6.01177 30.0211 6.95681 29.238L5.68078 27.698ZM2.7068 28.28H1.2788V30.28H2.7068V28.28ZM2.27426 29.1848L1.91026 25.3768L-0.0806656 25.5672L0.283334 29.3752L2.27426 29.1848ZM0.914797 26.472H1.8668V24.472H0.914797V26.472ZM1.8668 26.472C2.05616 26.472 2.25416 26.4615 2.43891 26.4263C2.58479 26.3986 2.904 26.325 3.1619 26.0671L1.74769 24.6529C1.85047 24.5501 1.94989 24.5031 1.99369 24.485C2.04074 24.4655 2.06905 24.4608 2.06468 24.4617C2.06256 24.4621 2.0456 24.465 2.00951 24.4676C1.97426 24.4702 1.92725 24.472 1.8668 24.472V26.472ZM3.1619 26.0671C3.38244 25.8466 3.48154 25.5861 3.52994 25.3925C3.57985 25.1929 3.5948 24.9883 3.5948 24.8H1.5948C1.5948 24.8917 1.58641 24.9204 1.58965 24.9075C1.59182 24.8988 1.60007 24.8684 1.62162 24.8253C1.6435 24.7815 1.68241 24.7182 1.74769 24.6529L3.1619 26.0671ZM3.5948 24.8V11.612H1.5948V24.8H3.5948ZM2.5948 12.612H7.2988V10.612H2.5948V12.612Z" fill="black" mask="url(#path-1-outside-1_450_62)"/>
<mask id="path-3-outside-2_450_62" maskUnits="userSpaceOnUse" x="5" y="4" width="10" height="21" fill="black">
<rect fill="white" x="5" y="4" width="10" height="21"/>
<path d="M13.2988 5.612V19.5C13.2988 20.9373 12.9721 21.9267 12.3188 22.468C11.6655 23.0093 10.4615 23.28 8.7068 23.28H7.2788L6.9148 19.472H7.8668C8.18413 19.472 8.38013 19.4347 8.4548 19.36C8.54813 19.2667 8.5948 19.08 8.5948 18.8V5.612H13.2988Z"/>
</mask>
<path d="M13.2988 5.612V19.5C13.2988 20.9373 12.9721 21.9267 12.3188 22.468C11.6655 23.0093 10.4615 23.28 8.7068 23.28H7.2788L6.9148 19.472H7.8668C8.18413 19.472 8.38013 19.4347 8.4548 19.36C8.54813 19.2667 8.5948 19.08 8.5948 18.8V5.612H13.2988Z" fill="white"/>
<path d="M13.2988 5.612H14.2988V4.612H13.2988V5.612ZM12.3188 22.468L11.6808 21.698H11.6808L12.3188 22.468ZM7.2788 23.28L6.28333 23.3752L6.36983 24.28H7.2788V23.28ZM6.9148 19.472V18.472H5.81465L5.91933 19.5672L6.9148 19.472ZM8.4548 19.36L7.74769 18.6529H7.74769L8.4548 19.36ZM8.5948 5.612V4.612H7.5948V5.612H8.5948ZM12.2988 5.612V19.5H14.2988V5.612H12.2988ZM12.2988 19.5C12.2988 20.8394 11.9859 21.4451 11.6808 21.698L12.9568 23.238C13.9583 22.4082 14.2988 21.0352 14.2988 19.5H12.2988ZM11.6808 21.698C11.3192 21.9976 10.4356 22.28 8.7068 22.28V24.28C10.4874 24.28 12.0118 24.0211 12.9568 23.238L11.6808 21.698ZM8.7068 22.28H7.2788V24.28H8.7068V22.28ZM8.27426 23.1848L7.91026 19.3768L5.91933 19.5672L6.28333 23.3752L8.27426 23.1848ZM6.9148 20.472H7.8668V18.472H6.9148V20.472ZM7.8668 20.472C8.05616 20.472 8.25416 20.4615 8.43891 20.4263C8.58479 20.3986 8.904 20.325 9.1619 20.0671L7.74769 18.6529C7.85047 18.5501 7.94989 18.5031 7.99369 18.485C8.04074 18.4655 8.06905 18.4608 8.06468 18.4617C8.06256 18.4621 8.0456 18.465 8.00951 18.4676C7.97426 18.4702 7.92725 18.472 7.8668 18.472V20.472ZM9.1619 20.0671C9.38244 19.8466 9.48154 19.5861 9.52994 19.3925C9.57985 19.1929 9.5948 18.9883 9.5948 18.8H7.5948C7.5948 18.8917 7.58641 18.9204 7.58965 18.9075C7.59182 18.8988 7.60007 18.8684 7.62162 18.8253C7.6435 18.7815 7.68241 18.7182 7.74769 18.6529L9.1619 20.0671ZM9.5948 18.8V5.612H7.5948V18.8H9.5948ZM8.5948 6.612H13.2988V4.612H8.5948V6.612Z" fill="black" mask="url(#path-3-outside-2_450_62)"/>
</svg>
