<svg width="163" height="31" viewBox="0 0 163 31" fill="none" xmlns="http://www.w3.org/2000/svg">
<path d="M11.712 0.191998V24C11.712 26.464 11.152 28.16 10.032 29.088C8.912 30.016 6.848 30.48 3.84 30.48H1.392L0.768 23.952H2.4C2.944 23.952 3.28 23.888 3.408 23.76C3.568 23.6 3.648 23.28 3.648 22.8V0.191998H11.712ZM34.0361 13.008L33.7961 22.944C33.7961 23.552 33.9401 23.968 34.2281 24.192C34.5481 24.384 35.0761 24.48 35.8121 24.48L35.0921 30.288C33.2361 30.416 32.2121 30.48 32.0201 30.48C29.6521 30.48 28.1481 29.664 27.5081 28.032H27.2681C26.0841 29.664 24.2601 30.48 21.7961 30.48C19.9081 30.48 18.4521 29.872 17.4281 28.656C16.4361 27.44 15.9401 25.776 15.9401 23.664C15.9401 21.008 16.7561 19.168 18.3881 18.144C20.0521 17.12 22.6601 16.448 26.2121 16.128V14.976C26.2121 14.08 25.7641 13.632 24.8681 13.632C23.3321 13.632 20.9321 14.096 17.6681 15.024L16.4681 8.016C20.5641 6.96 23.9721 6.432 26.6921 6.432C29.4121 6.432 31.3161 6.96 32.4041 8.016C33.4921 9.072 34.0361 10.736 34.0361 13.008ZM24.7721 24.864C25.9561 24.864 26.5481 24.24 26.5481 22.992V20.64C25.3641 20.8 24.5161 21.056 24.0041 21.408C23.5241 21.728 23.2841 22.288 23.2841 23.088C23.2841 24.272 23.7801 24.864 24.7721 24.864ZM37.8064 13.824C37.8064 11.488 38.5104 9.68 39.9184 8.4C41.3584 7.088 43.3264 6.432 45.8224 6.432C48.3184 6.432 50.8464 6.752 53.4064 7.392L52.5904 14.064C49.3264 13.328 47.1344 12.96 46.0144 12.96C45.3424 12.96 45.0064 13.232 45.0064 13.776C45.0064 14.128 45.3744 14.448 46.1104 14.736C48.6704 15.664 50.5904 16.72 51.8704 17.904C53.1824 19.088 53.8384 20.864 53.8384 23.232C53.8384 25.6 53.2304 27.408 52.0144 28.656C50.7984 29.872 48.9264 30.48 46.3984 30.48C43.9024 30.48 41.4064 30.16 38.9104 29.52L39.4384 23.04C42.6384 23.904 44.7024 24.336 45.6304 24.336C46.5904 24.336 47.0704 24.112 47.0704 23.664C47.0704 23.216 46.7184 22.864 46.0144 22.608C43.1664 21.52 41.0864 20.368 39.7744 19.152C38.4624 17.904 37.8064 16.128 37.8064 13.824ZM55.6526 13.824C55.6526 11.488 56.3566 9.68 57.7646 8.4C59.2046 7.088 61.1726 6.432 63.6686 6.432C66.1646 6.432 68.6926 6.752 71.2526 7.392L70.4366 14.064C67.1726 13.328 64.9806 12.96 63.8606 12.96C63.1886 12.96 62.8526 13.232 62.8526 13.776C62.8526 14.128 63.2206 14.448 63.9566 14.736C66.5166 15.664 68.4366 16.72 69.7166 17.904C71.0286 19.088 71.6846 20.864 71.6846 23.232C71.6846 25.6 71.0766 27.408 69.8606 28.656C68.6446 29.872 66.7726 30.48 64.2446 30.48C61.7486 30.48 59.2526 30.16 56.7566 29.52L57.2846 23.04C60.4846 23.904 62.5486 24.336 63.4766 24.336C64.4366 24.336 64.9166 24.112 64.9166 23.664C64.9166 23.216 64.5646 22.864 63.8606 22.608C61.0126 21.52 58.9326 20.368 57.6206 19.152C56.3086 17.904 55.6526 16.128 55.6526 13.824ZM74.3629 18.432C74.3629 14.208 75.1629 11.152 76.7629 9.264C78.3949 7.376 80.9229 6.432 84.3469 6.432C87.8029 6.432 90.3149 7.36 91.8829 9.216C93.4509 11.072 94.2349 14.128 94.2349 18.384C94.2349 22.608 93.4669 25.68 91.9309 27.6C90.3949 29.52 87.8829 30.48 84.3949 30.48C80.9069 30.48 78.3629 29.52 76.7629 27.6C75.1629 25.68 74.3629 22.624 74.3629 18.432ZM85.8829 13.872C85.6909 13.232 85.1789 12.912 84.3469 12.912C83.5149 12.912 82.9869 13.232 82.7629 13.872C82.5389 14.512 82.4269 15.856 82.4269 17.904V19.056C82.4269 21.328 82.5389 22.8 82.7629 23.472C82.9869 24.144 83.4989 24.48 84.2989 24.48C85.1309 24.48 85.6589 24.144 85.8829 23.472C86.1069 22.8 86.2189 21.424 86.2189 19.344V17.952C86.2189 15.872 86.1069 14.512 85.8829 13.872ZM106.187 8.688C107.947 7.184 109.883 6.432 111.995 6.432C114.107 6.432 115.579 6.928 116.411 7.92C117.275 8.88 117.707 10.336 117.707 12.288V30H109.547V15.024C109.547 14.224 109.195 13.824 108.491 13.824C107.595 13.824 106.843 14.048 106.235 14.496V30H98.1712V7.008H105.515L105.995 8.688H106.187ZM143.808 0.191998V24C143.808 26.464 143.248 28.16 142.128 29.088C141.008 30.016 138.944 30.48 135.936 30.48H133.488L132.864 23.952H134.496C135.04 23.952 135.376 23.888 135.504 23.76C135.664 23.6 135.744 23.28 135.744 22.8V0.191998H143.808ZM156.772 17.088V30H148.804V7.008H155.812L156.292 8.4H156.484C157.22 7.568 157.956 7.04 158.692 6.816C159.46 6.56 160.692 6.432 162.388 6.432L162.052 14.112H159.844C158.596 14.112 157.764 14.304 157.348 14.688C156.964 15.072 156.772 15.872 156.772 17.088Z" fill="black"/>
</svg>
